# xmcd
#
# Track frame offsets: 
#        150
#        18647
#        33932
#        50237
#        65087
#        79705
#        94787
#        110417
#        128350
#        143125
#        160515
#        175122
#        191267
#        208932
#
# Disc length: 3042 seconds
#
# Revision: 0
# Processed by: cddbd v1.5.1PL2 Copyright (c) Steve Scherf et al.
# Submitted via: ExactAudioCopy v0.95b4
#
DISCID=b90be00e
DTITLE=Diana - Ao Vivo
DYEAR=2002
DGENRE=Brega
TTITLE0=A Noite Mais Linda do Mundo
TTITLE1=Uma Vez Mais
TTITLE2=Fatalidade (Fatalitá)
TTITLE3=Foi Tudo Culpa do Amor
TTITLE4=Ainda Queima a Esperança
TTITLE5=Esta Noite Lhe Digo Que Não
TTITLE6=Meu Lamento
TTITLE7=A Música da Minha Vida
TTITLE8=Canção dos Namorados
TTITLE9=Porque Brigamos
TTITLE10=Jambalaya
TTITLE11=Por Te Querer Demais
TTITLE12=Jogando Conversa Fora
TTITLE13=Eu Te Amo
EXTD=
EXTT0=
EXTT1=
EXTT2=
EXTT3=
EXTT4=
EXTT5=
EXTT6=
EXTT7=
EXTT8=
EXTT9=
EXTT10=
EXTT11=
EXTT12=
EXTT13=
PLAYORDER=
